PathFileType	4	(X/Y/Z)	./resultDataOpenSim/trcMotMarkerGrf/sub06/qtm-04-08.trc
DataRate	CameraRate	NumFrames	NumMarkers	Units	OrigDataRate	OrigDataStartFrame	OrigNumFrames
250.000000	250.000000	9	24	m	250.000000	133	531
Frame#	Time	L.Toe.Tip			R.Toe.Tip			L.Ankle.Lat			R.Ankle.Lat			L.Ankle.Med			R.Ankle.Med			L.Heel			R.Heel			L.Knee.Lat			R.Knee.Lat			L.Knee.Med			R.Knee.Med			L.Thigh.Upper			R.Thigh.Upper			L.ASIS			R.ASIS			V.Sacral			L.Acromium			R.Acromium			C7			L.Elbow			R.Elbow			L.Wrist.Lat			R.Wrist.Lat
		X1	Y1	Z1	X2	Y2	Z2	X3	Y3	Z3	X4	Y4	Z4	X5	Y5	Z5	X6	Y6	Z6	X7	Y7	Z7	X8	Y8	Z8	X9	Y9	Z9	X10	Y10	Z10	X11	Y11	Z11	X12	Y12	Z12	X13	Y13	Z13	X14	Y14	Z14	X15	Y15	Z15	X16	Y16	Z16	X17	Y17	Z17	X18	Y18	Z18	X19	Y19	Z19	X20	Y20	Z20	X21	Y21	Z21	X22	Y22	Z22	X23	Y23	Z23	X24	Y24	Z24

133	0.528	-0.17183709	0.12187666	-0.061148623	-0.75979455	0.03568321	0.098986427	-0.29894232	0.10198888	-0.059647924	-0.8906055	0.071667138	0.11377751	-0.28921869	0.12253936	0.023311718	-0.86095102	0.092866982	0.031064674	-0.34183411	0.046408256	0.0030249177	-0.94387541	0.057153726	0.046128582	-0.41287203	0.45439295	-0.063124877	-0.7162371	0.42545202	0.1663041	-0.41515858	0.44773777	0.061554269	-0.72809149	0.42399829	0.032509611	-0.5890406	0.80459859	-0.1063408	-0.65646713	0.78554926	0.23143411	-0.53116841	0.85152337	-0.053825459	-0.55026978	0.84767468	0.19281724	-0.72593316	0.90999552	0.062902758	-0.63541147	1.3287953	-0.1201078	-0.60400284	1.3202069	0.23736292	-0.69982789	1.3565112	0.065986798	-0.72785317	1.0328153	-0.16946539	-0.6241637	1.0142773	0.35599313	-0.64057656	0.80858996	-0.22214809	-0.38988848	0.92631787	0.32347639
134	0.532	-0.15994147	0.12396341	-0.059843941	-0.75980304	0.03563966	0.098971102	-0.28668539	0.10198372	-0.058691543	-0.8904065	0.071719601	0.11378301	-0.27771101	0.12253821	0.024323463	-0.8607627	0.092661447	0.030915414	-0.32898131	0.045602689	0.0036302286	-0.94384766	0.057343596	0.04613942	-0.40645549	0.45184971	-0.062129082	-0.71321145	0.42370657	0.16612051	-0.40898857	0.44517208	0.062816705	-0.72446803	0.42211854	0.032508217	-0.58219274	0.80172629	-0.10618246	-0.65178282	0.78364796	0.23152509	-0.52448165	0.84920581	-0.053600745	-0.54484914	0.84572046	0.19326523	-0.7195135	0.90763715	0.063864914	-0.62998141	1.32642	-0.12021903	-0.59886377	1.3178847	0.23725219	-0.69434016	1.3539706	0.065793375	-0.72319877	1.030966	-0.16939551	-0.61741153	1.0121224	0.35659146	-0.63823095	0.80611966	-0.22293073	-0.38241739	0.92604385	0.32323575
135	0.536	-0.14835853	0.12587417	-0.058394006	-0.75982261	0.035596978	0.09896342	-0.27469022	0.10194174	-0.057748323	-0.8902463	0.071764572	0.11375995	-0.26653858	0.1224505	0.025370448	-0.86051325	0.092482418	0.030725745	-0.31641118	0.04475018	0.0042228563	-0.94379664	0.057573373	0.046097038	-0.39994322	0.44930936	-0.061193782	-0.71011505	0.42180769	0.16592169	-0.40283243	0.44256355	0.064025145	-0.72076972	0.42023577	0.032512496	-0.57533899	0.79879771	-0.1060352	-0.64702977	0.78167167	0.2315741	-0.51771391	0.84682293	-0.05336655	-0.53946296	0.8436773	0.19367083	-0.71331526	0.90532524	0.064732147	-0.6245475	1.323973	-0.12033769	-0.59371098	1.3154868	0.23715951	-0.68882721	1.3513565	0.065596655	-0.718483	1.0290148	-0.16933621	-0.61065378	1.009871	0.35719115	-0.63572883	0.80362143	-0.22366476	-0.37497943	0.92567674	0.32302581
136	0.54	-0.13707774	0.12756633	-0.056805229	-0.75985087	0.035552967	0.098967979	-0.26298727	0.10181866	-0.056807681	-0.89012456	0.071802728	0.11370542	-0.25568396	0.12226128	0.026446442	-0.86017632	0.092351284	0.030479528	-0.30415896	0.043807036	0.0047108461	-0.94370125	0.057845986	0.045982277	-0.39332917	0.44679377	-0.060306794	-0.70691052	0.41975881	0.16571158	-0.39666116	0.43993251	0.065198161	-0.71698382	0.41836568	0.032541629	-0.56848292	0.7958316	-0.10589368	-0.64220345	0.77962132	0.23158119	-0.51088064	0.84437629	-0.053112134	-0.53410867	0.84154157	0.194033	-0.70745228	0.90290778	0.064569858	-0.61910312	1.3214586	-0.1204684	-0.58855269	1.3130085	0.23709089	-0.68347068	1.3487343	0.065420524	-0.71371463	1.026963	-0.16928788	-0.60388258	1.0075205	0.35778884	-0.63304605	0.8011065	-0.22435519	-0.36757882	0.92521545	0.32284664
137	0.544	-0.12609224	0.12899937	-0.055097505	-0.75987866	0.035506134	0.098994183	-0.25161757	0.10158163	-0.05581803	-0.89002657	0.071845483	0.11362845	-0.24514109	0.12195114	0.027539063	-0.85977229	0.092279417	0.030199439	-0.29220702	0.042740747	0.0050272391	-0.94355458	0.058155677	0.045800464	-0.38661088	0.44432671	-0.059447476	-0.7035281	0.4176036	0.16551062	-0.39045535	0.43730513	0.066346583	-0.71313055	0.4165116	0.032612056	-0.56164628	0.79283605	-0.10576046	-0.63729341	0.77749498	0.23153488	-0.50403894	0.84186817	-0.052822576	-0.52875711	0.83929991	0.19437236	-0.70191345	0.90037311	0.063130044	-0.6136456	1.3188796	-0.12062064	-0.58339774	1.3104409	0.23704768	-0.67828032	1.3461158	0.065263443	-0.70889032	1.0248065	-0.16925072	-0.59709685	1.0050749	0.35838298	-0.63017872	0.79859237	-0.22502856	-0.36018965	0.92465842	0.32269383
138	0.548	-0.11539277	0.13014227	-0.053285305	-0.75989624	0.035458332	0.099050574	-0.24060218	0.1012168	-0.054753176	-0.88993239	0.071906578	0.11353776	-0.2349223	0.12149714	0.028631347	-0.85939517	0.092257239	0.029952658	-0.28055806	0.041551686	0.005210227	-0.94341615	0.058488808	0.04563576	-0.37979145	0.44192732	-0.058596425	-0.69992702	0.41543191	0.16535714	-0.3842031	0.43470389	0.067467899	-0.70923762	0.41468392	0.032726826	-0.55484464	0.78981824	-0.10563823	-0.63226894	0.77528034	0.23138124	-0.49724392	0.8393014	-0.052484282	-0.52337749	0.83694033	0.19470435	-0.69648423	0.89778021	0.060950871	-0.60816912	1.3162371	-0.12080279	-0.57824385	1.3077833	0.23702296	-0.6731642	1.3434759	0.065112568	-0.70399937	1.022547	-0.16920922	-0.59029694	1.0025372	0.35897604	-0.62709188	0.7960966	-0.22568888	-0.35275771	0.92400534	0.3225605
139	0.552	-0.10497054	0.13097388	-0.051377551	-0.75990274	0.035414583	0.099133292	-0.22993745	0.10071464	-0.053645815	-0.8898265	0.071996624	0.11343654	-0.22504539	0.12088502	0.029712202	-0.85914361	0.092261541	0.029796803	-0.26929865	0.040284694	0.0054074653	-0.94340719	0.058831367	0.045636833	-0.37288116	0.43959652	-0.05774937	-0.69620823	0.41333531	0.16528325	-0.37789562	0.43214371	0.068544286	-0.70532099	0.41289967	0.032876473	-0.54806475	0.78679378	-0.10553166	-0.62706907	0.77294909	0.23099932	-0.49051822	0.83667954	-0.052096566	-0.51795306	0.83446532	0.1950448	-0.69091318	0.89518028	0.058849871	-0.6026646	1.3135342	-0.12101807	-0.57308035	1.3050434	0.23701079	-0.66802328	1.3407898	0.064955757	-0.69903225	1.0202032	-0.16914793	-0.58347813	0.99991114	0.35956557	-0.62378751	0.79359011	-0.22631337	-0.34526407	0.92325851	0.32244855
140	0.556	-0.094830563	0.13148249	-0.049390931	-0.75990956	0.035379457	0.099217949	-0.21961049	0.10005875	-0.052535501	-0.88969121	0.072125446	0.11333206	-0.21550209	0.12011711	0.030792964	-0.85899222	0.092270637	0.029721877	-0.25852742	0.038984699	0.0057526411	-0.94357204	0.05918008	0.045854014	-0.36586759	0.43732123	-0.056915272	-0.69258623	0.41135207	0.1652832	-0.37152468	0.42963532	0.069551162	-0.70139949	0.4111596	0.033042227	-0.54125711	0.78378625	-0.10544673	-0.62163218	0.77047105	0.23025986	-0.48385697	0.83400518	-0.051673926	-0.51250544	0.83191305	0.19544013	-0.68512695	0.89260306	0.057292773	-0.59712898	1.3107782	-0.12126648	-0.56789533	1.3022292	0.23701093	-0.6627859	1.3380531	0.064785269	-0.6939904	1.0178024	-0.16908573	-0.57663452	0.99720818	0.36014231	-0.62035911	0.79099612	-0.22689081	-0.33775962	0.92242333	0.32237025
141	0.56	-0.084997091	0.13166423	-0.047355186	-0.75993294	0.035354159	0.099270511	-0.20960296	0.099234493	-0.051426799	-0.88949803	0.072304599	0.11324565	-0.20625085	0.11920184	0.031905121	-0.85879117	0.092273524	0.029664097	-0.24826948	0.037649484	0.0062671084	-0.94377417	0.059550002	0.046125189	-0.35868029	0.43509565	-0.056091669	-0.68913849	0.40946574	0.16532571	-0.36507853	0.42718901	0.070471663	-0.69749695	0.40944465	0.033209472	-0.53436508	0.78082213	-0.10538542	-0.61597919	0.76785559	0.22920489	-0.47721978	0.83127919	-0.051235228	-0.50712904	0.82936864	0.19600048	-0.67921399	0.89004698	0.056224043	-0.59156559	1.3079805	-0.12154797	-0.56268483	1.299346	0.23702396	-0.65742776	1.3352862	0.064599979	-0.6888813	1.0153605	-0.1690656	-0.5697713	0.99444639	0.36070373	-0.61692654	0.78827091	-0.22745372	-0.33030377	0.92150558	0.32233321
